<?xml version="1.0" encoding="utf-8"?>
<!-- Generator: Adobe Illustrator 27.3.1, SVG Export Plug-In . SVG Version: 6.00 Build 0)  -->
<svg version="1.1" id="Layer_1" xmlns="http://www.w3.org/2000/svg" xmlns:xlink="http://www.w3.org/1999/xlink" x="0px" y="0px"
	 viewBox="0 0 48 48" style="enable-background:new 0 0 48 48;" xml:space="preserve">
<style type="text/css">
	.st0{fill:#FF8F00;}
	.st1{fill:#FFA000;}
	.st2{fill:#FF6F00;}
	.st3{fill:#FFC400;}
</style>
<g>
	<path class="st0" d="M8,37L23.2,8.4c0.3-0.6,1.2-0.6,1.5,0L30,19L8,37z"/>
	<path class="st1" d="M8,37l5.5-34.2c0.1-0.9,1.3-1.1,1.8-0.3L26,23L8,37z"/>
	<path class="st2" d="M8,37l0.2-0.2l17.5-14.3L20.8,13L8,37z"/>
	<path class="st3" d="M8,37l26.7-25.7c0.6-0.5,1.5-0.2,1.6,0.5L40,37l-15,8.7c-0.6,0.3-1.4,0.3-2,0L8,37z"/>
</g>
</svg>
